<?xml version="1.0" standalone="no"?><!DOCTYPE svg PUBLIC "-//W3C//DTD SVG 1.1//EN" "http://www.w3.org/Graphics/SVG/1.1/DTD/svg11.dtd"><svg t="1534586071143" class="icon" style="" viewBox="0 0 1024 1024" version="1.1" xmlns="http://www.w3.org/2000/svg" p-id="43321" xmlns:xlink="http://www.w3.org/1999/xlink" width="200" height="200"><defs><style type="text/css"></style></defs><path d="M640 716.8H870.4c56.576-2.304 102.4-47.9744 102.4-102.4V204.8c0-56.7296-45.824-102.4-102.4-102.4H153.6c-56.576 0-102.4 45.6704-102.4 102.4v409.6c0 54.4256 45.824 100.096 102.4 102.4h230.4l128 179.2 128-179.2z m25.6 51.2l-153.6 204.8-153.6-204.8H153.6a153.6 153.6 0 0 1-153.6-153.6V204.8a153.6 153.6 0 0 1 153.6-153.6h716.8a153.6 153.6 0 0 1 153.6 153.6v409.6a153.6 153.6 0 0 1-153.6 153.6h-204.8zM230.4 307.2h204.8a25.6 25.6 0 0 1 0 51.2h-204.8a25.6 25.6 0 0 1 0-51.2z m0 153.6h512a25.6 25.6 0 1 1 0 51.2h-512a25.6 25.6 0 0 1 0-51.2z" p-id="43322" fill="#a0a0a0"></path></svg>