<?xml version="1.0" standalone="no"?><!DOCTYPE svg PUBLIC "-//W3C//DTD SVG 1.1//EN" "http://www.w3.org/Graphics/SVG/1.1/DTD/svg11.dtd"><svg t="1534585854502" class="icon" style="" viewBox="0 0 1126 1024" version="1.1" xmlns="http://www.w3.org/2000/svg" p-id="39945" xmlns:xlink="http://www.w3.org/1999/xlink" width="219.921875" height="200"><defs><style type="text/css"></style></defs><path d="M563.456 52.0704l504.0128 467.2512a24.064 24.064 0 0 1 1.1264 34.2016 24.4224 24.4224 0 0 1-34.5088 1.1264l-470.6816-436.3264-470.6304 435.0464a24.576 24.576 0 0 1-34.5088-1.1776 24.064 24.064 0 0 1 1.1776-34.2528l504.0128-465.8688z m350.208 476.8768c13.4656 0 24.4224 10.8544 24.4224 24.1664v419.584h-293.2224v-258.2016H481.9968v258.2016H188.7744v-419.584c0-13.312 10.9568-24.1664 24.4224-24.1664 13.5168 0 24.4736 10.8544 24.4736 24.1664v371.2h195.4304V666.112h260.608v258.1504h195.5328v-371.1488c0-13.312 10.9056-24.1664 24.4224-24.1664z m-171.008-346.9312a24.32 24.32 0 0 1-24.4736-24.2176c0-13.3632 10.9568-24.1664 24.4224-24.1664h195.4816v177.4592a24.32 24.32 0 0 1-24.4224 24.2176 24.32 24.32 0 0 1-24.4224-24.2176V182.016h-146.6368z" p-id="39946" fill="#a0a0a0"></path></svg>