<?xml version="1.0" standalone="no"?><!DOCTYPE svg PUBLIC "-//W3C//DTD SVG 1.1//EN" "http://www.w3.org/Graphics/SVG/1.1/DTD/svg11.dtd"><svg t="1534585812985" class="icon" style="" viewBox="0 0 1024 1024" version="1.1" xmlns="http://www.w3.org/2000/svg" p-id="39230" xmlns:xlink="http://www.w3.org/1999/xlink" width="200" height="200"><defs><style type="text/css"></style></defs><path d="M183.232 76.416C117.376 76.416 64 129.92 64 195.84c0 65.984 53.376 119.424 119.232 119.424 65.856 0 119.232-53.44 119.232-119.424C302.464 129.92 249.088 76.416 183.232 76.416zM183.232 252.032c-30.912 0-56.128-25.216-56.128-56.192 0-30.976 25.216-56.192 56.128-56.192S239.36 164.864 239.36 195.84C239.36 226.816 214.208 252.032 183.232 252.032zM421.696 227.456l506.752 0C945.856 227.456 960 213.312 960 195.84s-14.144-31.616-31.552-31.616L421.696 164.224c-17.408 0-31.552 14.144-31.552 31.616S404.288 227.456 421.696 227.456zM183.232 392.576C117.376 392.576 64 446.016 64 512c0 65.92 53.376 119.424 119.232 119.424C249.088 631.424 302.464 577.92 302.464 512 302.464 446.016 249.088 392.576 183.232 392.576zM183.232 568.192C152.32 568.192 127.104 542.976 127.104 512S152.32 455.808 183.232 455.808 239.36 481.024 239.36 512 214.208 568.192 183.232 568.192zM928.448 480.384 421.696 480.384C404.288 480.384 390.144 494.528 390.144 512c0 17.408 14.144 31.616 31.552 31.616l506.752 0C945.856 543.616 960 529.408 960 512 960 494.528 945.856 480.384 928.448 480.384zM183.232 708.672C117.376 708.672 64 762.176 64 828.096c0 65.984 53.376 119.424 119.232 119.424 65.856 0 119.232-53.44 119.232-119.424C302.464 762.176 249.088 708.672 183.232 708.672zM183.232 884.352c-30.912 0-56.128-25.28-56.128-56.256s25.216-56.192 56.128-56.192 56.064 25.216 56.064 56.192S214.208 884.352 183.232 884.352zM928.448 796.48 421.696 796.48c-17.408 0-31.552 14.144-31.552 31.616s14.144 31.616 31.552 31.616l506.752 0c17.408 0 31.552-14.144 31.552-31.616S945.856 796.48 928.448 796.48z" p-id="39231" fill="#a0a0a0"></path></svg>