<?xml version="1.0" standalone="no"?><!DOCTYPE svg PUBLIC "-//W3C//DTD SVG 1.1//EN" "http://www.w3.org/Graphics/SVG/1.1/DTD/svg11.dtd"><svg t="1534586250628" class="icon" style="" viewBox="0 0 1024 1024" version="1.1" xmlns="http://www.w3.org/2000/svg" p-id="50799" xmlns:xlink="http://www.w3.org/1999/xlink" width="200" height="200"><defs><style type="text/css"></style></defs><path d="M895.970002 896.009999H128.029998a127.990001 127.990001 0 0 1-127.990001-127.990001v-319.975002h1023.920006v319.975002a127.990001 127.990001 0 0 1-127.990001 127.990001z m-767.940004-127.990001h511.960003v-63.995H128.029998v63.995z m127.99-191.985001H128.029998v63.995001h127.99v-63.995001z m255.980002 0h-127.990001v63.995001h127.990001v-63.995001z m255.980002 0h-127.990001v63.995001h127.990001v-63.995001z m-767.940005-319.975002a127.990001 127.990001 0 0 1 127.990001-127.99h767.940004a127.990001 127.990001 0 0 1 127.990001 127.99v63.995001H0.039997v-63.995001z" p-id="50800" fill="#a0a0a0"></path></svg>