<?xml version="1.0" standalone="no"?><!DOCTYPE svg PUBLIC "-//W3C//DTD SVG 1.1//EN" "http://www.w3.org/Graphics/SVG/1.1/DTD/svg11.dtd"><svg t="1534585984151" class="icon" style="" viewBox="0 0 1024 1024" version="1.1" xmlns="http://www.w3.org/2000/svg" p-id="41892" xmlns:xlink="http://www.w3.org/1999/xlink" width="200" height="200"><defs><style type="text/css"></style></defs><path d="M 512 0 C 229.376 0 0 229.376 0 512 s 229.376 512 512 512 s 512 -229.376 512 -512 S 794.624 0 512 0 Z m 0 962.56 C 264.192 962.56 61.44 759.808 61.44 512 S 264.192 61.44 512 61.44 s 450.56 202.752 450.56 450.56 s -202.752 450.56 -450.56 450.56 Z" fill="#333" p-id="41893"></path><path d="M 768 471.04 H 552.96 v -194.56 c 0 -16.384 -14.336 -30.72 -30.72 -30.72 s -30.72 14.336 -30.72 30.72 V 471.04 H 276.48 c -16.384 0 -30.72 14.336 -30.72 30.72 s 14.336 30.72 30.72 30.72 H 491.52 v 215.04 c 0 16.384 14.336 30.72 30.72 30.72 s 30.72 -14.336 30.72 -30.72 V 532.48 h 215.04 c 16.384 0 30.72 -14.336 30.72 -30.72 s -14.336 -30.72 -30.72 -30.72 Z" fill="#333" p-id="41894"></path></svg>