<?xml version="1.0" standalone="no"?><!DOCTYPE svg PUBLIC "-//W3C//DTD SVG 1.1//EN" "http://www.w3.org/Graphics/SVG/1.1/DTD/svg11.dtd"><svg t="1534585922070" class="icon" style="" viewBox="0 0 1024 1024" version="1.1" xmlns="http://www.w3.org/2000/svg" p-id="40985" xmlns:xlink="http://www.w3.org/1999/xlink" width="200" height="200"><defs><style type="text/css"></style></defs><path d="M46.435 394.464h931.542a43.35 43.35 0 0 0 43.35-43.35l-0.007-0.094a43.307 43.307 0 0 0-18.446-36.299L654.904 70.51a43.35 43.35 0 0 0-49.795 70.964l236.936 166.29H46.435a43.35 43.35 0 0 0 0 86.7z m931.542 205.558H46.435a43.35 43.35 0 0 0-43.35 43.35l0.007 0.073a43.307 43.307 0 0 0 18.446 36.312L369.523 923.97a43.314 43.314 0 0 0 60.386-10.585 43.343 43.343 0 0 0-10.577-60.38L182.381 686.723h795.596a43.35 43.35 0 0 0 0-86.7z" fill="#a0a0a0" p-id="40986"></path></svg>