<?xml version="1.0" standalone="no"?><!DOCTYPE svg PUBLIC "-//W3C//DTD SVG 1.1//EN" "http://www.w3.org/Graphics/SVG/1.1/DTD/svg11.dtd"><svg t="1534586101436" class="icon" style="" viewBox="0 0 1024 1024" version="1.1" xmlns="http://www.w3.org/2000/svg" p-id="44054" xmlns:xlink="http://www.w3.org/1999/xlink" width="200" height="200"><defs><style type="text/css"></style></defs><path d="M884.929618 666.266479c8.27957 3.01773 16.485463 6.221702 24.834618 9.015328 18.535145 6.211469 20.786419 9.148357 21.13639 28.879748 0.054235 2.733251 0.011256 5.468548 0.011256 9.152451-11.891841 0-23.057135-0.049119-34.221406 0.011256-9.524934 0.049119-15.812127 4.932336-16.139585 12.390191-0.345877 7.747451 6.282077 13.624299 15.882736 13.745049 11.160177 0.143263 22.319331 0.031722 34.446533 0.031722 0 15.277962 0.010233 29.525454 0 43.785226-0.011256 7.309476 0.174985 14.619976-0.143263 21.913079-0.229221 5.090948 1.431605 8.190543 5.434779 11.848862 4.034896 3.691065 5.876847 10.033517 7.971555 15.488763 0.940418 2.443655-0.016373 5.571902 0.191358 8.365528 1.64036 22.564925-9.054213 27.403117-26.043143 29.058826-6.65456 0.645706-13.274328 1.515516-20.694321 2.37407 2.870374-42.969651-9.939373-79.159898-42.406832-107.1156-23.756053-20.447704-51.628868-29.852912-83.002412-28.823466-23.352871 0.765433-44.560892 8.151657-63.71923 21.236674-19.491936 13.296841-33.718963 31.022551-42.8489 52.859905-8.950859 21.416775-11.673877 43.609217-8.005324 67.059302L367.033327 877.543394c5.669116-47.189765-8.885368-86.572728-46.12962-116.13502-25.76992-20.454868-55.867402-27.944446-88.525196-24.319895-58.432831 6.473435-118.116141 63.97608-103.751992 146.147568-12.510942-2.039449-24.533766-3.794419-36.45733-6.112208-2.493797-0.487094-4.932336-2.724041-6.814196-4.714372-8.835226-9.327436-7.303336-37.987173 1.794879-46.982034 2.613524-2.580778 4.554736-6.840802 4.909823-10.509355 1.25662-12.853749 1.848091-25.774013 2.350534-38.683021 0.246617-6.187933 1.90335-9.578146 9.086959-10.108219 8.896624-0.662079 17.665335-2.953262 26.473955-4.647857 8.481162-1.633197 13.752212-8.255011 12.286838-15.22168-1.563612-7.380084-8.387018-11.519358-16.752546-10.070356-9.109472 1.574868-18.207687 3.226484-27.288506 4.844332-2.191922-8.567119 0.464581-14.312984 9.344832-20.11513 25.544793-16.708544 53.428863-28.682249 82.603323-36.736693 32.866548-9.075703 66.419735-15.648398 99.624998-23.521716 3.596921-0.847298 7.391341-2.454912 10.197246-4.790096 37.44789-31.219026 77.885881-57.736982 121.670084-79.263252 38.305421-18.829857 79.421864-24.876574 121.29146-27.555589 45.014216-2.876514 89.795119-0.143263 134.354987 6.643304 20.841677 3.171226 40.049135 11.011798 57.774845 21.902846 27.457352 16.873296 54.834886 34.002418 81.214696 52.494585 14.539134 10.19213 28.753881 14.521738 45.972031 9.857509 7.801686-2.109034 16.036231-2.62478 24.068162-3.8814 10.393721-1.623987 17.441231 2.208295 19.016099 10.366092 1.700735 8.831132-3.428076 15.205307-13.94664 17.310248-2.061962 0.410346-4.129041 0.750083-6.189979 1.115404C885.110743 665.332201 885.018645 665.796782 884.929618 666.266479L884.929618 666.266479zM600.617293 591.415724c-100.001575-11.252275-184.551226 22.078855-260.429381 86.797855 84.933391 19.25146 169.06758 9.103332 253.771751 4.680603C596.217077 651.848095 598.414115 621.684098 600.617293 591.415724L600.617293 591.415724zM628.698862 593.849146c-2.122337 28.765137-4.231371 57.403385-6.363941 86.364997 39.104623-3.298116 77.158311-6.511297 116.458385-9.830903C710.909236 630.322849 677.054173 602.280166 628.698862 593.849146L628.698862 593.849146zM580.830645 739.389894l0 0.076748c5.324262 0 10.650571 0 15.981996-0.005117 0.556679 0 1.115404-0.037862 1.673106-0.125867 7.649214-1.207501 13.373589-7.577582 12.778024-14.20963-0.590448-6.682189-6.29845-11.651364-14.062274-11.782348-10.650571-0.174985-21.317515-0.289596-31.957853-0.011256-8.17417 0.206708-13.707187 5.64251-13.898545 12.843516-0.190335 7.090489 5.347798 12.68388 13.511735 13.159718C570.169841 739.646744 575.505359 739.389894 580.830645 739.389894L580.830645 739.389894zM580.830645 739.389894" p-id="44055" fill="#a0a0a0"></path><path d="M286.955524 79.625502c52.290947 0 104.5778 0.082888 156.86363-0.037862 24.981974-0.060375 50.175773 22.892383 50.455135 49.234331 0.322341 30.284747-0.005117 60.570517 0.092098 90.855264 0.14224 40.393989 0.49221 80.787978 0.618077 121.18299 0.103354 33.658587 0.944512 67.348897-0.251733 100.968599-1.110287 31.100322-29.628808 52.483328-54.905494 51.40067-19.053961-0.814552-38.168298-0.372483-57.244772-0.426719-15.413038-0.049119-30.825053-0.065492-46.24423 0-19.354813 0.094144-38.715767 0.306992-58.081837 0.421602-12.619412 0.076748-25.243941 0.094144-37.868469 0.098237-33.099862 0.011256-66.195631 0.285502-99.290377-0.12996-13.746072-0.168846-27.14729-0.837064-39.158858-10.606569-14.981203-12.192693-22.022573-27.694759-22.110577-45.802162-0.453325-100.356662-0.611937-200.719464 0.054235-301.07715 0.174985-25.89988 11.5695-47.130414 41.170678-54.82363 3.188622-0.829901 6.583952-1.207501 9.886161-1.207501C182.940542 79.597873 234.94701 79.625502 286.955524 79.625502L286.955524 79.625502zM137.110751 122.256438c-7.895831 0.082888-13.308097 5.587252-13.411451 13.159718-0.289596 20.191878-0.082888 278.412964-0.143263 298.604842-0.092098 29.14683 0-29.14683 0 0 0.137123 0 0-150.581554 0.143263-150.587694 0 9.257851-0.174985 141.325749-0.143263 150.587694 0.033769 9.251711 0-9.255805 0 0-0.004093 13.18223 0.082888-13.177114 0 0-0.124843 18.513656-0.967024-18.452257 0 0 0.650823 12.378935 6.327102 16.819061 18.349927 16.675798 25.221428-0.311085 50.455135-0.518816 75.68168-0.594541 32.800034-0.099261 65.6103-0.038886 98.411357-0.016373 12.897751 0.011256 25.794479 0.103354 38.687114 0.168846 26.91807 0.147356 53.844326 0.711198 80.757279 0.246617 10.377348-0.174985 15.767102-4.620227 15.439644-16.260335-0.771573-27.742854-0.022513-55.513338 0-83.266425 0.037862-40.098253-0.132006-80.192414 0-120.290667 0.103354-30.55797-0.103354-61.110823 0-91.663676 0.042979-12.3247-3.657296-16.457834-15.993253-17.403369-1.673106-0.132006-3.367701-0.054235-5.057179-0.031722" p-id="44056" fill="#a0a0a0"></path><path d="M776.897136 944.378591c-49.717332-0.00614-88.12099-38.835494-88.060615-89.044012 0.049119-48.267307 39.054481-87.196944 87.377046-87.212294 48.119951-0.016373 87.776136 38.567387 89.196485 83.991949C867.051435 905.040654 823.677579 945.735495 776.897136 944.378591L776.897136 944.378591zM810.281477 856.647481c0.295735-17.535375-15.396665-33.488719-33.122375-33.686217-17.556864-0.190335-33.504068 15.681144-33.487695 33.313733 0.021489 17.298991 15.226796 32.806173 32.667004 33.331129C793.536095 890.119827 809.991882 874.14397 810.281477 856.647481L810.281477 856.647481zM810.281477 856.647481" p-id="44057" fill="#a0a0a0"></path><path d="M159.254074 855.673294c-0.069585-47.070039 38.951127-86.371136 84.457554-87.73725 51.624774-1.553379 92.046393 40.367383 91.774193 87.25118-0.280386 49.793056-38.442544 89.164762-87.098707 89.185228C197.555401 944.407244 159.320589 906.368906 159.254074 855.673294L159.254074 855.673294zM246.725264 823.064618c-17.524119 0.26299-32.680307 15.659655-32.625048 33.150004 0.054235 17.84032 15.883759 33.642215 33.374108 33.313733 18.141172-0.343831 33.137725-15.588023 33.06814-33.614585C280.470833 838.282205 264.526699 822.791395 246.725264 823.064618L246.725264 823.064618zM246.725264 823.064618" p-id="44058" fill="#a0a0a0"></path><path d="M192.892195 410.876881 192.892195 164.979472c2.689249-0.25071 5.083785-0.666172 7.484462-0.666172 33.150004-0.027629 66.321498-0.727571 99.443873 0.217964 34.386158 0.989537 63.97608 13.231349 78.896908 46.348608 23.11137 51.2922 0.935302 113.435539-67.409273 124.107599-17.593703 2.750647-35.812647 1.514493-53.751205 2.078335-3.040243 0.092098-6.085602 0.011256-10.130731 0.011256l0 73.79982L192.892195 410.876881 192.892195 410.876881zM247.730151 289.132096c14.609743 0 28.332279 0.075725 42.050722-0.065492 3.334955-0.027629 6.691399-0.662079 10.005888-1.230014 18.721387-3.231601 31.077809-16.867156 31.614022-34.811854 0.617054-20.438495-9.906627-35.698037-29.771047-38.601156-17.573237-2.558265-35.594683-1.979074-53.893444-2.809999C247.730151 238.261499 247.730151 263.132956 247.730151 289.132096L247.730151 289.132096zM247.730151 289.132096" p-id="44059" fill="#a0a0a0"></path></svg>